Naruto_Shippuuden_275 Eng Subbed BZINGAZ in mkv format 60 mb size. 

Download**Enjoy**Seed

Naruto Shippuuden 275 mkv 60 mb Bzingaz.mp4

Format                           : MPEG-4
Format profile                   : Base Media
Codec ID                         : isom
File size                        : 42.2 MiB
Duration                         : 23mn 9s
Overall bit rate                 : 255 Kbps


Video
ID                               : 1
Format                           : AVC
Format/Info                      : Advanced Video Codec
Format profile                   : High@L3.0
Format settings, CABAC           : Yes
Format settings, ReFrames        : 6 frames
Codec ID                         : avc1
Codec ID/Info                    : Advanced Video Coding
Duration                         : 23mn 9s
Bit rate mode                    : Variable
Bit rate                         : 158 Kbps
Maximum bit rate                 : 1 115 Kbps
Width                            : 640 pixels
Height                           : 360 pixels
Display aspect ratio             : 16:9
Original display aspect ratio    : 16:9
Frame rate mode                  : Constant
Frame rate                       : 23.976 fps
Color space                      : YUV
Chroma subsampling               : 4:2:0
Bit depth                        : 8 bits
Scan type                        : Progressive
Bits/(Pixel*Frame)               : 0.029
Stream size                      : 26.1 MiB (62%)

Audio
ID                               : 2
Format                           : AAC
Format/Info                      : Advanced Audio Codec
Format profile                   : LC
Codec ID                         : 40
Duration                         : 23mn 9s
Bit rate mode                    : Variable
Bit rate                         : 93.3 Kbps
Maximum bit rate                 : 151 Kbps
Channel(s)                       : 2 channels
Channel positions                : Front: L R
Sampling rate                    : 44.1 KHz
Compression mode                 : Lossy
Stream size                      : 15.5 MiB (37%)
Encoded date                     : UTC 2012-08-15 10:59:19
Tagged date                      : UTC 2012-08-15 10:59:19
